#define config_width 24
#define config_height 24
static unsigned char config_bits[] = {
   0x00, 0x18, 0x00, 0x00, 0x3c, 0x00, 0x60, 0x3c, 0x1e, 0xf0, 0xfd, 0x1f,
   0xf0, 0xff, 0x1f, 0xe0, 0xff, 0x0f, 0xe0, 0xff, 0x07, 0xfe, 0xff, 0x7f,
   0xff, 0x81, 0xff, 0xff, 0x00, 0xff, 0xfe, 0x00, 0x7f, 0xf8, 0x00, 0x1f,
   0xf8, 0x00, 0x1f, 0xfe, 0x00, 0x7f, 0xff, 0x00, 0xff, 0xff, 0x81, 0xff,
   0xfe, 0xff, 0x7f, 0xf0, 0xff, 0x2f, 0xf0, 0xff, 0x0f, 0xf0, 0xff, 0x0f,
   0xf0, 0xff, 0x0f, 0xf0, 0x7e, 0x07, 0x40, 0x3c, 0x02, 0x00, 0x3c, 0x00};
