#define delete_width 19
#define delete_height 22
static unsigned char delete_bits[] = {
0xe0, 0x3f, 0x00, 0x20, 0x20, 0x00, 0xf8, 0xff, 0x00, 0xfe, 0xff, 0x03,
0xff, 0xff, 0x07, 0x1f, 0xc0, 0x07, 0x58, 0xd2, 0x00, 0x58, 0xd2, 0x00,
0x58, 0xd2, 0x00, 0x58, 0xd2, 0x00, 0x58, 0xd2, 0x00, 0x58, 0x02, 0x00,
0x58, 0xfa, 0x03, 0x58, 0xea, 0x02, 0x58, 0x5a, 0x03, 0x58, 0xba, 0x03,
0x58, 0x5a, 0x03, 0x58, 0xea, 0x02, 0x58, 0xfa, 0x03, 0x18, 0x00, 0x00,
0xf8, 0xff, 0x00, 0xf8, 0xff, 0x00};
