#define delete_mask_width 19
#define delete_mask_height 22
static unsigned char delete_mask_bits[] = {
   0xe0, 0x3f, 0x00, 0x20, 0x20, 0x00, 0xf8, 0xff, 0x00, 0xfe, 0xff, 0x03,
   0xff, 0xff, 0x07, 0xff, 0xff, 0x07, 0xf8, 0xff, 0x00, 0xf8, 0xff, 0x00,
   0xf8, 0xff, 0x00, 0xf8, 0xff, 0x00, 0xf8, 0xff, 0x00, 0xf8, 0x3f, 0x00,
   0xf8, 0xff, 0x03, 0xf8, 0xef, 0x02, 0xf8, 0x5f, 0x03, 0xf8, 0xbf, 0x03,
   0xf8, 0x5f, 0x03, 0xf8, 0xef, 0x02, 0xf8, 0xff, 0x03, 0xf8, 0x3f, 0x00,
   0xf8, 0xff, 0x00, 0xf8, 0xff, 0x00};
