#define dupplicate_mask_width 17
#define dupplicate_mask_height 17
static unsigned char dupplicate_mask_bits[] = {
   0xf8, 0xff, 0x01, 0x08, 0x00, 0x01, 0x08, 0x00, 0x01, 0x0f, 0x06, 0x01,
   0x09, 0x06, 0x01, 0x09, 0x06, 0x01, 0xc9, 0x3f, 0x01, 0xc9, 0x3f, 0x01,
   0x09, 0x06, 0x01, 0x09, 0x06, 0x01, 0x09, 0x06, 0x01, 0x09, 0x00, 0x01,
   0x09, 0x00, 0x01, 0xf9, 0xff, 0x01, 0x01, 0x20, 0x00, 0x01, 0x20, 0x00,
   0xff, 0x3f, 0x00};
