#define dupplicate_width 17
#define dupplicate_height 17
static unsigned char dupplicate_bits[] = {
   0x00, 0x00, 0x00, 0x00, 0x00, 0x00, 0x00, 0x00, 0x00, 0x00, 0x06, 0x00,
   0x00, 0x06, 0x00, 0x00, 0x06, 0x00, 0xc0, 0x3f, 0x00, 0xc0, 0x3f, 0x00,
   0x00, 0x06, 0x00, 0x00, 0x06, 0x00, 0x00, 0x06, 0x00, 0x00, 0x00, 0x00,
   0x00, 0x00, 0x00, 0x00, 0x00, 0x00, 0x00, 0x00, 0x00, 0x00, 0x00, 0x00,
   0x00, 0x00, 0x00};
