#define folder_width 24
#define folder_height 24
static unsigned char folder_bits[] = {
0xff, 0x03, 0x00, 0xff, 0x03, 0x00, 0x03, 0xfe, 0xff, 0x03, 0xfc, 0xff,
0xff, 0x0f, 0xc0, 0xff, 0x0f, 0xc0, 0x03, 0x00, 0xc0, 0x03, 0x00, 0xc0,
0x03, 0x00, 0xc0, 0x03, 0x00, 0xc0, 0x03, 0x00, 0xc0, 0x03, 0x00, 0xc0,
0x03, 0x00, 0xc0, 0x03, 0x00, 0xc0, 0x03, 0x00, 0xc0, 0x03, 0x00, 0xc0,
0x03, 0x00, 0xc0, 0x03, 0x00, 0xc0, 0x03, 0x00, 0xc0, 0x03, 0x00, 0xc0,
0x03, 0x00, 0xc0, 0x03, 0x00, 0xc0, 0xff, 0xff, 0xff, 0xff, 0xff, 0xff};
