#define folder_17_width 17
#define folder_17_height 17
static unsigned char folder_17_bits[] = {
   0x7f, 0x00, 0x00, 0xc1, 0xff, 0x01, 0x81, 0xff, 0x01, 0xff, 0x00, 0x01,
   0x01, 0x00, 0x01, 0x01, 0x00, 0x01, 0x01, 0x00, 0x01, 0x01, 0x00, 0x01,
   0x01, 0x00, 0x01, 0x01, 0x00, 0x01, 0x01, 0x00, 0x01, 0x01, 0x00, 0x01,
   0x01, 0x00, 0x01, 0x01, 0x00, 0x01, 0x01, 0x00, 0x01, 0x01, 0x00, 0x01,
   0xff, 0xff, 0x01};
