#define folder_17_mask_width 17
#define folder_17_mask_height 17
static unsigned char folder_17_mask_bits[] = {
   0x7f, 0x00, 0x00, 0xff, 0xff, 0x01, 0xff, 0xff, 0x01, 0xff, 0xff, 0x01,
   0xff, 0xff, 0x01, 0xff, 0xff, 0x01, 0xff, 0xff, 0x01, 0xff, 0xff, 0x01,
   0xff, 0xff, 0x01, 0xff, 0xff, 0x01, 0xff, 0xff, 0x01, 0xff, 0xff, 0x01,
   0xff, 0xff, 0x01, 0xff, 0xff, 0x01, 0xff, 0xff, 0x01, 0xff, 0xff, 0x01,
   0xff, 0xff, 0x01};
